<?xml version="1.0" standalone="no"?>
<!DOCTYPE svg PUBLIC "-//W3C//DTD SVG 20010904//EN"
 "http://www.w3.org/TR/2001/REC-SVG-20010904/DTD/svg10.dtd">
<svg version="1.0" xmlns="http://www.w3.org/2000/svg"
 width="1000.000000pt" height="918.000000pt" viewBox="0 0 1000.000000 918.000000"
 preserveAspectRatio="xMidYMid meet">

<g transform="translate(0.000000,918.000000) scale(0.100000,-0.100000)"
fill="#000000" stroke="none">
<path d="M1839 8174 c-308 -55 -592 -231 -775 -479 -159 -215 -236 -455 -236
-730 0 -265 70 -490 221 -705 82 -118 -6 -34 1396 -1320 440 -403 853 -781
919 -839 l118 -106 -7 -1170 c-7 -1247 -6 -1300 40 -1481 99 -390 410 -726
793 -854 242 -81 552 -81 791 0 338 114 621 384 750 714 80 206 75 99 81 1523
3 828 8 1275 15 1281 32 29 1392 1274 1710 1566 209 191 393 362 408 380 16
17 43 60 60 96 30 61 32 72 32 175 0 98 -3 116 -27 167 -96 205 -338 294 -544
200 l-69 -32 50 47 c28 27 156 145 285 263 129 118 327 301 440 405 113 105
277 255 363 334 l156 144 -32 37 c-18 20 -77 87 -131 148 l-99 111 -86 -77
c-269 -242 -478 -432 -1521 -1387 -426 -390 -991 -907 -1255 -1149 -264 -241
-527 -482 -585 -535 -58 -53 -184 -168 -280 -256 -96 -87 -187 -169 -201 -182
l-26 -23 -100 112 c-55 62 -114 129 -131 149 l-32 36 418 384 c229 211 453
418 497 459 45 41 157 145 250 230 94 85 202 185 240 221 60 56 331 305 785
721 674 617 826 761 857 810 142 225 33 530 -216 608 -110 35 -247 20 -340
-37 -18 -12 -501 -450 -1073 -975 -572 -524 -1042 -952 -1045 -951 -6 1 -592
538 -1278 1168 -275 253 -527 484 -560 513 -165 146 -386 251 -605 287 -115
18 -318 18 -421 -1z"/>
</g>
</svg>
